# xmcd
#
# Track frame offsets:
#	150
#	11776
#	22050
#	35250
#	46501
#	57226
#	71400
#	83363
#	93862
#	108000
#	122775
#	134324
#	144038
#	156150
#	168301
#	182176
#	195039
#	206542
#	217316
#	229463
#
# Disc length: 3217 seconds
# Revision: 3
# Processed by: cddbd v1.5.2PL0 Copyright (c) Steve Scherf et al.
# Submitted via: dBpowerAMP V12.0
#
DISCID=030c8f14
DTITLE=Blind Willie McTell - Pig 'n Whistle Red
DYEAR=1950
DGENRE=Blues
TTITLE0=Don't Forget It
TTITLE1=Good Little Thing
TTITLE2=You Can't Get Stuff No More
TTITLE3=Love Changing Blues
TTITLE4=Savannah Mama
TTITLE5=Talkin' To You Mama
TTITLE6=East St. Louis Blues
TTITLE7=A To Z Blues
TTITLE8=Wee Midnight Hours
TTITLE9=Brown Skin Woman
TTITLE10=I Keep on Drinkin'
TTITLE11=Pal of Mine [take 1]
TTITLE12=Pal of Mine [take 2]
TTITLE13=Honey It Must Be Love
TTITLE14=Sending Up My Timber [take 1]
TTITLE15=Sending Up My Timber [take 2]
TTITLE16=Lord Have Mercy If You Please
TTITLE17=Climbing High Mountains
TTITLE18=It's My Desire
TTITLE19=Hide Me in Thy Bosom
EXTD=
EXTT0=
EXTT1=
EXTT2=
EXTT3=
EXTT4=
EXTT5=
EXTT6=
EXTT7=
EXTT8=
EXTT9=
EXTT10=
EXTT11=
EXTT12=
EXTT13=
EXTT14=
EXTT15=
EXTT16=
EXTT17=
EXTT18=
EXTT19=
PLAYORDER=
